<svg width="900" height="111" viewBox="0 0 900 111" fill="none" xmlns="http://www.w3.org/2000/svg">
<path d="M279.375 40.75L297.75 9H387.75L365.875 47H339.875L346.75 35H321.125L354.125 67.25L335.75 99H245.75L267.75 61H293.75L286.875 73H312.5L279.375 40.75ZM443.625 41H465.25L431.75 99H405.75L424.25 67H386.25L367.75 99H341.75L393.75 9H419.75L401.25 41H411.625L452.375 9H484.125L443.625 41ZM515.75 9L463.75 99H437.75L489.75 9H515.75ZM469.75 99L521.75 9H545L558 57L585.75 9H611.75L559.75 99H536.5L522.75 52.25L495.75 99H469.75ZM628.75 35L606.875 73H644.875L666.75 35H628.75ZM652.75 9H707.75L655.75 99H565.75L617.75 9H643.75L634.875 24.375L652.75 9ZM751.75 99H661.75L713.75 9H739.75L702.875 73H766.875L751.75 99ZM823.5 40.875L881.25 41L866.25 67L808.5 66.875L823.5 40.875ZM798.875 73H862.875L847.75 99H757.75L809.75 9H899.75L884.75 35H820.75L798.875 73Z" fill="#00C74D"/>
<path d="M279.375 40.75L268.989 34.7392L264.307 42.8284L271.004 49.3481L279.375 40.75ZM297.75 9V-3H290.83L287.364 2.98918L297.75 9ZM387.75 9L398.15 14.9868L408.504 -3H387.75V9ZM365.875 47V59H372.813L376.275 52.9868L365.875 47ZM339.875 47L329.463 41.0347L319.17 59H339.875V47ZM346.75 35L357.162 40.9653L367.455 23H346.75V35ZM321.125 35V23H291.677L312.738 43.5822L321.125 35ZM354.125 67.25L364.511 73.2608L369.183 65.1874L362.512 58.6678L354.125 67.25ZM335.75 99V111H342.67L346.136 105.011L335.75 99ZM245.75 99L235.365 92.9876L224.937 111H245.75V99ZM267.75 61V49H260.831L257.365 54.9876L267.75 61ZM293.75 61L304.162 66.9653L314.455 49H293.75V61ZM286.875 73L276.463 67.0347L266.17 85H286.875V73ZM312.5 73V85H342.028L320.871 64.4019L312.5 73ZM289.761 46.7608L308.136 15.0108L287.364 2.98918L268.989 34.7392L289.761 46.7608ZM297.75 21H387.75V-3H297.75V21ZM377.35 3.01321L355.475 41.0132L376.275 52.9868L398.15 14.9868L377.35 3.01321ZM365.875 35H339.875V59H365.875V35ZM350.287 52.9653L357.162 40.9653L336.338 29.0347L329.463 41.0347L350.287 52.9653ZM346.75 23H321.125V47H346.75V23ZM312.738 43.5822L345.738 75.8322L362.512 58.6678L329.512 26.4178L312.738 43.5822ZM343.739 61.2392L325.364 92.9892L346.136 105.011L364.511 73.2608L343.739 61.2392ZM335.75 87H245.75V111H335.75V87ZM256.135 105.012L278.135 67.0124L257.365 54.9876L235.365 92.9876L256.135 105.012ZM267.75 73H293.75V49H267.75V73ZM283.338 55.0347L276.463 67.0347L297.287 78.9653L304.162 66.9653L283.338 55.0347ZM286.875 85H312.5V61H286.875V85ZM320.871 64.4019L287.746 32.1519L271.004 49.3481L304.129 81.5981L320.871 64.4019ZM443.625 41L436.186 31.5844L409.081 53H443.625V41ZM465.25 41L475.641 47.0018L486.039 29H465.25V41ZM431.75 99V111H438.677L442.141 105.002L431.75 99ZM405.75 99L395.361 92.994L384.951 111H405.75V99ZM424.25 67L434.639 73.006L445.049 55H424.25V67ZM386.25 67V55H379.326L375.861 60.994L386.25 67ZM367.75 99V111H374.674L378.139 105.006L367.75 99ZM341.75 99L331.36 92.9967L320.958 111H341.75V99ZM393.75 9V-3H386.824L383.36 2.99667L393.75 9ZM419.75 9L430.139 15.006L440.549 -3H419.75V9ZM401.25 41L390.861 34.994L380.451 53H401.25V41ZM411.625 41V53H415.774L419.036 50.4378L411.625 41ZM452.375 9V-3H448.226L444.964 -0.437829L452.375 9ZM484.125 9L491.564 18.4156L518.669 -3H484.125V9ZM443.625 53H465.25V29H443.625V53ZM454.859 34.9982L421.359 92.9982L442.141 105.002L475.641 47.0018L454.859 34.9982ZM431.75 87H405.75V111H431.75V87ZM416.139 105.006L434.639 73.006L413.861 60.994L395.361 92.994L416.139 105.006ZM424.25 55H386.25V79H424.25V55ZM375.861 60.994L357.361 92.994L378.139 105.006L396.639 73.006L375.861 60.994ZM367.75 87H341.75V111H367.75V87ZM352.14 105.003L404.14 15.0033L383.36 2.99667L331.36 92.9967L352.14 105.003ZM393.75 21H419.75V-3H393.75V21ZM409.361 2.99396L390.861 34.994L411.639 47.006L430.139 15.006L409.361 2.99396ZM401.25 53H411.625V29H401.25V53ZM419.036 50.4378L459.786 18.4378L444.964 -0.437829L404.214 31.5622L419.036 50.4378ZM452.375 21H484.125V-3H452.375V21ZM476.686 -0.415617L436.186 31.5844L451.064 50.4156L491.564 18.4156L476.686 -0.415617ZM515.75 9L526.14 15.0033L536.542 -3H515.75V9ZM463.75 99V111H470.676L474.14 105.003L463.75 99ZM437.75 99L427.36 92.9967L416.958 111H437.75V99ZM489.75 9V-3H482.824L479.36 2.99667L489.75 9ZM505.36 2.99667L453.36 92.9967L474.14 105.003L526.14 15.0033L505.36 2.99667ZM463.75 87H437.75V111H463.75V87ZM448.14 105.003L500.14 15.0033L479.36 2.99667L427.36 92.9967L448.14 105.003ZM489.75 21H515.75V-3H489.75V21ZM469.75 99L459.36 92.9967L448.958 111H469.75V99ZM521.75 9V-3H514.824L511.36 2.99667L521.75 9ZM545 9L556.583 5.86301L554.182 -3H545V9ZM558 57L546.417 60.137L553.956 87.9713L568.389 63.006L558 57ZM585.75 9V-3H578.826L575.361 2.99396L585.75 9ZM611.75 9L622.14 15.0033L632.542 -3H611.75V9ZM559.75 99V111H566.676L570.14 105.003L559.75 99ZM536.5 99L524.988 102.386L527.521 111H536.5V99ZM522.75 52.25L534.262 48.864L526.362 22.0021L512.359 46.2485L522.75 52.25ZM495.75 99V111H502.677L506.141 105.001L495.75 99ZM480.14 105.003L532.14 15.0033L511.36 2.99667L459.36 92.9967L480.14 105.003ZM521.75 21H545V-3H521.75V21ZM533.417 12.137L546.417 60.137L569.583 53.863L556.583 5.86301L533.417 12.137ZM568.389 63.006L596.139 15.006L575.361 2.99396L547.611 50.994L568.389 63.006ZM585.75 21H611.75V-3H585.75V21ZM601.36 2.99667L549.36 92.9967L570.14 105.003L622.14 15.0033L601.36 2.99667ZM559.75 87H536.5V111H559.75V87ZM548.012 95.614L534.262 48.864L511.238 55.636L524.988 102.386L548.012 95.614ZM512.359 46.2485L485.359 92.9985L506.141 105.001L533.141 58.2515L512.359 46.2485ZM495.75 87H469.75V111H495.75V87ZM628.75 35V23H621.812L618.35 29.0132L628.75 35ZM606.875 73L596.475 67.0132L586.121 85H606.875V73ZM644.875 73V85H651.813L655.275 78.9868L644.875 73ZM666.75 35L677.15 40.9868L687.504 23H666.75V35ZM652.75 9V-3H648.299L644.925 -0.0975933L652.75 9ZM707.75 9L718.14 15.0033L728.542 -3H707.75V9ZM655.75 99V111H662.676L666.14 105.003L655.75 99ZM565.75 99L555.36 92.9967L544.958 111H565.75V99ZM617.75 9V-3H610.824L607.36 2.99667L617.75 9ZM643.75 9L654.143 14.9991L664.533 -3H643.75V9ZM634.875 24.375L624.482 18.3759L642.7 33.4726L634.875 24.375ZM618.35 29.0132L596.475 67.0132L617.275 78.9868L639.15 40.9868L618.35 29.0132ZM606.875 85H644.875V61H606.875V85ZM655.275 78.9868L677.15 40.9868L656.35 29.0132L634.475 67.0132L655.275 78.9868ZM666.75 23H628.75V47H666.75V23ZM652.75 21H707.75V-3H652.75V21ZM697.36 2.99667L645.36 92.9967L666.14 105.003L718.14 15.0033L697.36 2.99667ZM655.75 87H565.75V111H655.75V87ZM576.14 105.003L628.14 15.0033L607.36 2.99667L555.36 92.9967L576.14 105.003ZM617.75 21H643.75V-3H617.75V21ZM633.357 3.00089L624.482 18.3759L645.268 30.3741L654.143 14.9991L633.357 3.00089ZM642.7 33.4726L660.575 18.0976L644.925 -0.0975933L627.05 15.2774L642.7 33.4726ZM751.75 99V111H758.652L762.123 105.034L751.75 99ZM661.75 99L651.36 92.9967L640.958 111H661.75V99ZM713.75 9V-3H706.824L703.36 2.99667L713.75 9ZM739.75 9L750.148 14.9908L760.513 -3H739.75V9ZM702.875 73L692.477 67.0092L682.112 85H702.875V73ZM766.875 73L777.248 79.034L787.739 61H766.875V73ZM751.75 87H661.75V111H751.75V87ZM672.14 105.003L724.14 15.0033L703.36 2.99667L651.36 92.9967L672.14 105.003ZM713.75 21H739.75V-3H713.75V21ZM729.352 3.00919L692.477 67.0092L713.273 78.9908L750.148 14.9908L729.352 3.00919ZM702.875 85H766.875V61H702.875V85ZM756.502 66.966L741.377 92.966L762.123 105.034L777.248 79.034L756.502 66.966ZM823.5 40.875L823.526 28.875L816.578 28.86L813.106 34.8783L823.5 40.875ZM881.25 41L891.644 46.9967L902.001 29.0449L881.276 29L881.25 41ZM866.25 67L866.224 79L873.172 79.015L876.644 72.9967L866.25 67ZM808.5 66.875L798.106 60.8783L787.749 78.8301L808.474 78.875L808.5 66.875ZM798.875 73L788.475 67.0132L778.121 85H798.875V73ZM862.875 73L873.248 79.034L883.739 61H862.875V73ZM847.75 99V111H854.652L858.123 105.034L847.75 99ZM757.75 99L747.36 92.9967L736.958 111H757.75V99ZM809.75 9V-3H802.824L799.36 2.99667L809.75 9ZM899.75 9L910.144 14.9967L920.527 -3H899.75V9ZM884.75 35V47H891.681L895.144 40.9967L884.75 35ZM820.75 35V23H813.812L810.35 29.0132L820.75 35ZM823.474 52.875L881.224 53L881.276 29L823.526 28.875L823.474 52.875ZM870.856 35.0033L855.856 61.0033L876.644 72.9967L891.644 46.9967L870.856 35.0033ZM866.276 55L808.526 54.875L808.474 78.875L866.224 79L866.276 55ZM818.894 72.8717L833.894 46.8717L813.106 34.8783L798.106 60.8783L818.894 72.8717ZM798.875 85H862.875V61H798.875V85ZM852.502 66.966L837.377 92.966L858.123 105.034L873.248 79.034L852.502 66.966ZM847.75 87H757.75V111H847.75V87ZM768.14 105.003L820.14 15.0033L799.36 2.99667L747.36 92.9967L768.14 105.003ZM809.75 21H899.75V-3H809.75V21ZM889.356 3.00333L874.356 29.0033L895.144 40.9967L910.144 14.9967L889.356 3.00333ZM884.75 23H820.75V47H884.75V23ZM810.35 29.0132L788.475 67.0132L809.275 78.9868L831.15 40.9868L810.35 29.0132Z" fill="black"/>
<path d="M52.75 9H142.75L127.75 35H63.75L41.875 73H105.875L90.75 99H0.75L52.75 9ZM130.375 40.75L148.75 9H238.75L216.875 47H190.875L197.75 35H172.125L205.125 67.25L186.75 99H96.75L118.75 61H144.75L137.875 73H163.5L130.375 40.75ZM261.5 25L246.5 51H220.5L235.5 25H261.5ZM243 57L228 83H202L217 57H243Z" fill="white"/>
<path d="M52.75 9V-3H45.8244L42.3596 2.99667L52.75 9ZM142.75 9L153.144 14.9967L163.527 -3H142.75V9ZM127.75 35V47H134.681L138.144 40.9967L127.75 35ZM63.75 35V23H56.8116L53.3501 29.0132L63.75 35ZM41.875 73L31.4751 67.0132L21.1208 85H41.875V73ZM105.875 73L116.248 79.034L126.739 61H105.875V73ZM90.75 99V111H97.652L101.123 105.034L90.75 99ZM0.75 99L-9.64038 92.9967L-20.0423 111H0.75V99ZM52.75 21H142.75V-3H52.75V21ZM132.356 3.00333L117.356 29.0033L138.144 40.9967L153.144 14.9967L132.356 3.00333ZM127.75 23H63.75V47H127.75V23ZM53.3501 29.0132L31.4751 67.0132L52.2749 78.9868L74.1499 40.9868L53.3501 29.0132ZM41.875 85H105.875V61H41.875V85ZM95.5024 66.966L80.3774 92.966L101.123 105.034L116.248 79.034L95.5024 66.966ZM90.75 87H0.75V111H90.75V87ZM11.1404 105.003L63.1404 15.0033L42.3596 2.99667L-9.64038 92.9967L11.1404 105.003ZM130.375 40.75L119.989 34.7392L115.307 42.8284L122.004 49.3481L130.375 40.75ZM148.75 9V-3H141.83L138.364 2.98918L148.75 9ZM238.75 9L249.15 14.9868L259.504 -3H238.75V9ZM216.875 47V59H223.813L227.275 52.9868L216.875 47ZM190.875 47L180.463 41.0347L170.17 59H190.875V47ZM197.75 35L208.162 40.9653L218.455 23H197.75V35ZM172.125 35V23H142.677L163.738 43.5822L172.125 35ZM205.125 67.25L215.511 73.2608L220.183 65.1874L213.512 58.6678L205.125 67.25ZM186.75 99V111H193.67L197.136 105.011L186.75 99ZM96.75 99L86.3649 92.9876L75.9366 111H96.75V99ZM118.75 61V49H111.831L108.365 54.9876L118.75 61ZM144.75 61L155.162 66.9653L165.455 49H144.75V61ZM137.875 73L127.463 67.0347L117.17 85H137.875V73ZM163.5 73V85H193.028L171.871 64.4019L163.5 73ZM140.761 46.7608L159.136 15.0108L138.364 2.98918L119.989 34.7392L140.761 46.7608ZM148.75 21H238.75V-3H148.75V21ZM228.35 3.01321L206.475 41.0132L227.275 52.9868L249.15 14.9868L228.35 3.01321ZM216.875 35H190.875V59H216.875V35ZM201.287 52.9653L208.162 40.9653L187.338 29.0347L180.463 41.0347L201.287 52.9653ZM197.75 23H172.125V47H197.75V23ZM163.738 43.5822L196.738 75.8322L213.512 58.6678L180.512 26.4178L163.738 43.5822ZM194.739 61.2392L176.364 92.9892L197.136 105.011L215.511 73.2608L194.739 61.2392ZM186.75 87H96.75V111H186.75V87ZM107.135 105.012L129.135 67.0124L108.365 54.9876L86.3649 92.9876L107.135 105.012ZM118.75 73H144.75V49H118.75V73ZM134.338 55.0347L127.463 67.0347L148.287 78.9653L155.162 66.9653L134.338 55.0347ZM137.875 85H163.5V61H137.875V85ZM171.871 64.4019L138.746 32.1519L122.004 49.3481L155.129 81.5981L171.871 64.4019ZM261.5 25L271.894 30.9967L282.277 13H261.5V25ZM246.5 51V63H253.431L256.894 56.9967L246.5 51ZM220.5 51L210.106 45.0033L199.723 63H220.5V51ZM235.5 25V13H228.569L225.106 19.0033L235.5 25ZM243 57L253.394 62.9967L263.777 45H243V57ZM228 83V95H234.931L238.394 88.9967L228 83ZM202 83L191.606 77.0033L181.223 95H202V83ZM217 57V45H210.069L206.606 51.0033L217 57ZM251.106 19.0033L236.106 45.0033L256.894 56.9967L271.894 30.9967L251.106 19.0033ZM246.5 39H220.5V63H246.5V39ZM230.894 56.9967L245.894 30.9967L225.106 19.0033L210.106 45.0033L230.894 56.9967ZM235.5 37H261.5V13H235.5V37ZM232.606 51.0033L217.606 77.0033L238.394 88.9967L253.394 62.9967L232.606 51.0033ZM228 71H202V95H228V71ZM212.394 88.9967L227.394 62.9967L206.606 51.0033L191.606 77.0033L212.394 88.9967ZM217 69H243V45H217V69Z" fill="black"/>
</svg>
